<svg width="800" height="450" viewBox="0 0 800 450" fill="none" xmlns="http://www.w3.org/2000/svg">
  <!-- Background Gradient -->
  <rect width="800" height="450" fill="url(#bg_gradient)"/>
  
  <!-- Subtle Decorative Circles -->
  <circle cx="700" cy="100" r="150" fill="white" fill-opacity="0.05"/>
  <circle cx="100" cy="350" r="100" fill="white" fill-opacity="0.05"/>
  
  <!-- Main "Terminal/Script" Card -->
  <g filter="url(#dropShadow)">
    <rect x="225" y="100" width="350" height="250" rx="24" fill="white" fill-opacity="0.1" style="backdrop-filter:blur(10px)"/>
    <rect x="225.5" y="100.5" width="349" height="249" rx="23.5" stroke="white" stroke-opacity="0.3"/>
    
    <!-- Header Bar -->
    <rect x="225" y="100" width="350" height="40" rx="24" fill="white" fill-opacity="0.1"/>
    <circle cx="255" cy="120" r="6" fill="#FF5F56"/>
    <circle cx="275" cy="120" r="6" fill="#FFBD2E"/>
    <circle cx="295" cy="120" r="6" fill="#27C93F"/>
    
    <!-- Code Lines -->
    <rect x="260" y="165" width="200" height="10" rx="5" fill="white" fill-opacity="0.6"/>
    <rect x="260" y="195" width="280" height="10" rx="5" fill="white" fill-opacity="0.3"/>
    <rect x="260" y="225" width="240" height="10" rx="5" fill="white" fill-opacity="0.3"/>
    <rect x="260" y="255" width="180" height="10" rx="5" fill="white" fill-opacity="0.3"/>
    
    <!-- Cursor/Prompt -->
    <path d="M260 300L275 315L260 330" stroke="white" stroke-width="4" stroke-linecap="round" stroke-linejoin="round"/>
    <rect x="285" y="325" width="25" height="5" rx="2.5" fill="white">
      <animate attributeName="opacity" values="1;0;1" dur="1s" repeatCount="indefinite" />
    </rect>
  </g>

  <defs>
    <linearGradient id="bg_gradient" x1="0" y1="0" x2="800" y2="450" gradientUnits="userSpaceOnUse">
      <stop stop-color="#4F46E5"/>
      <stop offset="1" stop-color="#9333EA"/>
    </linearGradient>
    <filter id="dropShadow" x="185" y="70" width="430" height="330" filterUnits="userSpaceOnUse" color-interpolation-filters="sRGB">
      <feFlood flood-opacity="0" result="BackgroundImageFix"/>
      <feColorMatrix in="SourceAlpha" type="matrix" values="0 0 0 0 0 0 0 0 0 0 0 0 0 0 0 0 0 0 127 0" result="hardAlpha"/>
      <feOffset dy="10"/>
      <feGaussianBlur stdDeviation="20"/>
      <feComposite in2="hardAlpha" operator="out"/>
      <feColorMatrix type="matrix" values="0 0 0 0 0 0 0 0 0 0 0 0 0 0 0 0 0 0 0.25 0"/>
      <feBlend mode="normal" in2="BackgroundImageFix" result="effect1_dropShadow"/>
      <feBlend mode="normal" in="SourceGraphic" in2="effect1_dropShadow" result="shape"/>
    </filter>
  </defs>
</svg>
