<svg width="800" height="450" viewBox="0 0 800 450" fill="none" xmlns="http://www.w3.org/2000/svg">
    <rect width="800" height="450" fill="#1E293B"/>
    <path d="M100 225 H 700" stroke="#38BDF8" stroke-width="10" stroke-linecap="round"/>
    <circle cx="150" cy="225" r="15" fill="#1E293B" stroke="#38BDF8" stroke-width="6"/>
    <circle cx="300" cy="225" r="15" fill="#1E293B" stroke="#38BDF8" stroke-width="6"/>
    <circle cx="500" cy="225" r="15" fill="#1E293B" stroke="#38BDF8" stroke-width="6"/>
    <circle cx="650" cy="225" r="15" fill="#1E293B" stroke="#38BDF8" stroke-width="6"/>
    <path d="M300 225 C 350 225, 350 125, 400 125 H 600" stroke="#A78BFA" stroke-width="10" stroke-linecap="round"/>
    <circle cx="450" cy="125" r="15" fill="#1E293B" stroke="#A78BFA" stroke-width="6"/>
    <circle cx="600" cy="125" r="15" fill="#1E293B" stroke="#A78BFA" stroke-width="6"/>
    <path d="M600 125 C 650 125, 650 225, 650 225" stroke="#A78BFA" stroke-width="10" stroke-linecap="round"/>
    <path d="M150 225 C 200 225, 200 325, 250 325 H 450" stroke="#F472B6" stroke-width="10" stroke-linecap="round"/>
    <circle cx="350" cy="325" r="15" fill="#1E293B" stroke="#F472B6" stroke-width="6"/>
    <circle cx="450" cy="325" r="15" fill="#1E293B" stroke="#F472B6" stroke-width="6"/>
    <path d="M450 325 C 500 325, 500 225, 500 225" stroke="#F472B6" stroke-width="10" stroke-linecap="round"/>
</svg>
