<svg width="800" height="450" viewBox="0 0 800 450" fill="none" xmlns="http://www.w3.org/2000/svg">
<rect width="800" height="450" fill="#111827"/>
<g transform="translate(337.5, 162.5)">
    <path d="M125 0C125 69.0356 69.0356 125 0 125C-69.0356 125 -125 69.0356 -125 0C-125 -69.0356 -69.0356 -125 0 -125C69.0356 -125 125 -69.0356 125 0Z" stroke="#8B5CF6" stroke-width="40"/>
    <path d="M250 125C250 194.036 194.036 250 125 250C55.9644 250 0 194.036 0 125C0 55.9644 55.9644 0 125 0C194.036 0 250 55.9644 250 125Z" stroke="#EC4899" stroke-width="40"/>
    <path d="M0 125C-27.2345 125 -52.9694 135.531 -70.7107 153.272C-88.452 171.014 -98.9831 196.749 -98.9831 223.983" stroke="#3B82F6" stroke-width="40" stroke-linecap="round"/>
</g>
</svg>
